<svg width="50" height="30" viewBox="0 0 50 30" fill="none" xmlns="http://www.w3.org/2000/svg">
<path d="M21.4485 1.43135C21.1956 1.68246 20.9821 1.96047 20.7965 2.24925L1.4178 21.6288C-0.471814 23.5202 -0.472711 26.5856 1.4187 28.4779C3.30922 30.3693 6.37548 30.3693 8.26779 28.4779L24.9569 11.787L41.7339 28.5622C43.6235 30.4545 46.6906 30.4545 48.5829 28.5622C49.5273 27.6161 49.9999 26.3775 49.9999 25.139C49.9999 23.9005 49.5273 22.6593 48.5811 21.7158L29.1173 2.24925C28.9316 1.96047 28.7191 1.68336 28.4653 1.43135C27.4967 0.462772 26.225 -0.00178528 24.9569 0.0197392C23.6879 -0.00268173 22.4144 0.462772 21.4485 1.43135Z" fill="white"/>
</svg>
